<svg width="21" height="22" viewBox="0 0 21 22" fill="none" xmlns="http://www.w3.org/2000/svg">
<path d="M0.898922 7.24259C1.15768 7.24259 1.29784 7.09164 1.29784 6.83288V3.93261C1.29784 2.531 2.031 1.79784 3.43261 1.79784H6.34367C6.60243 1.79784 6.75337 1.65768 6.75337 1.39892C6.75337 1.14016 6.60243 1 6.34367 1H3.41105C1.5027 1 0.5 1.99191 0.5 3.88949V6.83288C0.5 7.09164 0.640162 7.24259 0.898922 7.24259ZM20.1011 7.24259C20.3598 7.24259 20.5 7.09164 20.5 6.83288V3.88949C20.5 2.01348 19.5081 1 17.5997 1H14.6563C14.3976 1 14.2466 1.14016 14.2466 1.39892C14.2466 1.65768 14.3976 1.79784 14.6563 1.79784H17.5674C18.9259 1.79784 19.7022 2.531 19.7022 3.93261V6.83288C19.7022 7.09164 19.8423 7.24259 20.1011 7.24259ZM9.62129 12.4501H9.71833C10.5916 12.4501 11.0337 12.0189 11.0337 11.1348V7.8248C11.0337 7.57682 10.9151 7.45822 10.6671 7.45822C10.4299 7.45822 10.3005 7.57682 10.3005 7.8248V11.2318C10.3005 11.5229 10.0633 11.7062 9.82615 11.7062H9.45957C9.25472 11.7062 9.10377 11.8571 9.10377 12.062C9.10377 12.3208 9.2655 12.4501 9.62129 12.4501ZM6.62399 9.97035C6.94744 9.97035 7.15229 9.7655 7.15229 9.44205V8.00809C7.15229 7.67385 6.94744 7.469 6.62399 7.469C6.31132 7.469 6.10647 7.68464 6.10647 8.00809V9.44205C6.10647 9.7655 6.31132 9.97035 6.62399 9.97035ZM14.279 9.97035C14.5916 9.97035 14.7965 9.7655 14.7965 9.44205V8.00809C14.7965 7.68464 14.5916 7.469 14.279 7.469C13.9555 7.469 13.7399 7.67385 13.7399 8.00809V9.44205C13.7399 9.7655 13.9555 9.97035 14.279 9.97035ZM10.4084 15.7493C11.5943 15.7493 12.7803 15.2534 13.6536 14.3801C13.7183 14.3261 13.783 14.2291 13.783 14.0889C13.783 13.8733 13.6213 13.7332 13.4272 13.7332C13.3086 13.7332 13.2116 13.7655 13.0714 13.9164C12.4245 14.5633 11.4218 15.027 10.4084 15.027C9.39488 15.027 8.40296 14.5633 7.74528 13.9164C7.6159 13.7763 7.51887 13.7332 7.38949 13.7332C7.19542 13.7332 7.03369 13.8733 7.03369 14.0889C7.03369 14.2183 7.09838 14.3154 7.16307 14.3801C8.01482 15.2641 9.22237 15.7493 10.4084 15.7493ZM3.41105 21H6.34367C6.60243 21 6.75337 20.8598 6.75337 20.6011C6.75337 20.3423 6.60243 20.2022 6.34367 20.2022H3.43261C2.031 20.2022 1.29784 19.469 1.29784 18.0566V15.1671C1.29784 14.9084 1.15768 14.7466 0.898922 14.7466C0.640162 14.7466 0.5 14.9084 0.5 15.1671V18.0997C0.5 20.0081 1.5027 21 3.41105 21ZM14.6563 21H17.5997C19.5081 21 20.5 19.9757 20.5 18.0997V15.1671C20.5 14.9084 20.3598 14.7466 20.1011 14.7466C19.8423 14.7466 19.7022 14.9084 19.7022 15.1671V18.0566C19.7022 19.469 18.9259 20.2022 17.5674 20.2022H14.6563C14.3976 20.2022 14.2466 20.3423 14.2466 20.6011C14.2466 20.8598 14.3976 21 14.6563 21Z" fill="#62248F" stroke="#62248F" stroke-width="0.8"/>
</svg>
