<svg width="28" height="27" viewBox="0 0 28 27" fill="none" xmlns="http://www.w3.org/2000/svg">
<path d="M22.9648 23.124C22.9648 24.5074 21.8433 25.6289 20.46 25.6289H3.98047L5.5625 22.4649V2.95314C5.5625 2.06889 6.29018 1.35076 7.18224 1.37153L22.9648 4.53517V23.124Z" fill="#FEBD00"/>
<path d="M25.6016 20.3555V21.9375C25.6016 22.2288 25.3655 22.4649 25.0742 22.4649C24.8457 22.4649 18.7072 22.4649 18.7461 22.4649C18.4548 22.4649 18.2188 22.2288 18.2188 21.9375V20.3555C18.2188 20.0642 18.4548 19.8281 18.7461 19.8281L21.3301 19.1074L24.0195 19.8281C24.6834 19.8281 25.1141 19.8281 25.0742 19.8281C25.3655 19.8281 25.6016 20.0642 25.6016 20.3555Z" fill="#62248F"/>
<path d="M25.6016 15.082V16.6641C25.6016 16.9553 25.3655 17.1914 25.0742 17.1914C25.041 17.1914 24.6245 17.1914 24.0195 17.1914L21.3301 17.7188L18.7461 17.1914C18.4548 17.1914 18.2188 16.9553 18.2188 16.6641V15.082C18.2188 14.7908 18.4548 14.5547 18.7461 14.5547C18.8246 14.5547 20.1542 13.5 21.5058 13.5C22.6815 13.5 23.8481 14.5547 24.5469 14.5547C24.9185 14.5547 25.128 14.5547 25.0742 14.5547C25.3655 14.5547 25.6016 14.7908 25.6016 15.082Z" fill="#62248F"/>
<path d="M24.5469 17.7188V19.3008C24.5469 19.592 24.3108 19.8281 24.0195 19.8281C23.8364 19.8281 17.4204 19.8281 17.6914 19.8281C17.4002 19.8281 17.1641 19.592 17.1641 19.3008V17.7188C17.1641 17.4275 17.4002 17.1914 17.6914 17.1914C17.8256 17.1914 24.2029 17.1914 24.0195 17.1914C24.3108 17.1914 24.5469 17.4275 24.5469 17.7188Z" fill="#8A4CB7"/>
<path d="M24.5469 12.4453V14.0273C24.5469 14.3186 24.3112 14.5547 24.02 14.5547C22.3243 14.5547 17.5628 14.5547 17.6914 14.5547C17.4002 14.5547 17.1641 14.3186 17.1641 14.0273V12.4453C17.1641 12.1541 17.4002 11.918 17.6914 11.918C17.8785 11.918 24.2063 11.918 24.0195 11.918C24.3108 11.918 24.5469 12.1541 24.5469 12.4453Z" fill="#8A4CB7"/>
<path d="M24.0195 3.77051V4.00781C24.0195 4.29906 23.7834 4.53516 23.4922 4.53516H22.9648H9.25391C8.96265 4.53516 8.72656 4.29906 8.72656 4.00781V2.95312C8.72656 2.07932 8.01834 1.37109 7.14453 1.37109H21.6201C22.9453 1.37109 24.0195 2.44535 24.0195 3.77051Z" fill="#EAA900"/>
<path d="M5.5625 22.4648V24.0149C5.5625 24.8793 4.88244 25.6083 4.01817 25.6285C3.12501 25.6493 2.39844 24.93 2.39844 24.0469V22.9922C2.39844 22.7009 2.63453 22.4648 2.92578 22.4648H5.5625Z" fill="#EAA900"/>
<path d="M14.5273 7.69922H7.67188C7.38062 7.69922 7.14453 7.46313 7.14453 7.17188C7.14453 6.88062 7.38062 6.64453 7.67188 6.64453H14.5273C14.8186 6.64453 15.0547 6.88062 15.0547 7.17188C15.0547 7.46313 14.8186 7.69922 14.5273 7.69922Z" fill="#FADE65"/>
<path d="M14.5273 10.3359H7.67188C7.38062 10.3359 7.14453 10.0998 7.14453 9.80859C7.14453 9.51734 7.38062 9.28125 7.67188 9.28125H14.5273C14.8186 9.28125 15.0547 9.51734 15.0547 9.80859C15.0547 10.0998 14.8186 10.3359 14.5273 10.3359Z" fill="#FADE65"/>
<path d="M14.5273 12.9727H7.67188C7.38062 12.9727 7.14453 12.7366 7.14453 12.4453C7.14453 12.1541 7.38062 11.918 7.67188 11.918H14.5273C14.8186 11.918 15.0547 12.1541 15.0547 12.4453C15.0547 12.7366 14.8186 12.9727 14.5273 12.9727Z" fill="#FADE65"/>
<path d="M14.5273 15.6094H7.67188C7.38062 15.6094 7.14453 15.3732 7.14453 15.082C7.14453 14.7908 7.38062 14.5547 7.67188 14.5547H14.5273C14.8186 14.5547 15.0547 14.7908 15.0547 15.082C15.0547 15.3732 14.8186 15.6094 14.5273 15.6094Z" fill="#FADE65"/>
<path d="M14.5273 18.2461H7.67188C7.38062 18.2461 7.14453 18.0099 7.14453 17.7188C7.14453 17.4276 7.38062 17.1914 7.67188 17.1914H14.5273C14.8186 17.1914 15.0547 17.4276 15.0547 17.7188C15.0547 18.0099 14.8186 18.2461 14.5273 18.2461Z" fill="#FADE65"/>
</svg>
